<svg xmlns="http://www.w3.org/2000/svg" width="307" height="65" fill="none" viewBox="0 0 307 65">
    <path fill="#0F0F0F" d="M41.257 51.523c-3.528 0-6.681-.794-9.46-2.382-2.733-1.631-4.894-3.814-6.482-6.548C23.772 39.814 23 36.683 23 33.199c0-3.572.772-6.747 2.315-9.525 1.544-2.778 3.66-4.939 6.35-6.482 2.69-1.588 5.777-2.382 9.261-2.382 5.204 0 9.526 1.985 12.965 5.954.618.705.838 1.433.662 2.182-.177.75-.662 1.412-1.456 1.985-.617.44-1.3.595-2.05.463-.75-.176-1.433-.573-2.05-1.19-2.161-2.294-4.852-3.44-8.07-3.44-3.396 0-6.153 1.146-8.27 3.44-2.116 2.248-3.174 5.247-3.174 8.995 0 2.382.485 4.498 1.455 6.35 1.014 1.853 2.403 3.33 4.167 4.433 1.764 1.058 3.815 1.587 6.152 1.587 2.999 0 5.424-.772 7.276-2.315.706-.573 1.434-.882 2.183-.926.75-.088 1.411.11 1.985.595.75.618 1.168 1.323 1.257 2.117.088.75-.177 1.433-.794 2.05-3.175 2.955-7.144 4.432-11.907 4.432zM82.308 51.523c-3.22 0-6.108-.794-8.666-2.382-2.557-1.631-4.586-3.814-6.085-6.548-1.456-2.779-2.183-5.91-2.183-9.394 0-3.483.794-6.614 2.381-9.393 1.632-2.778 3.815-4.96 6.549-6.548 2.778-1.632 5.887-2.448 9.327-2.448 3.44 0 6.526.816 9.26 2.448 2.735 1.587 4.895 3.77 6.483 6.548 1.632 2.779 2.448 5.91 2.448 9.393v14.752c0 .97-.331 1.785-.993 2.447-.617.617-1.41.926-2.381.926-.97 0-1.786-.309-2.447-.926-.618-.662-.927-1.477-.927-2.448v-2.447c-1.543 1.852-3.417 3.33-5.622 4.432-2.161 1.058-4.542 1.587-7.144 1.587zm1.323-5.954c2.249 0 4.255-.529 6.02-1.587 1.763-1.103 3.152-2.58 4.167-4.432 1.014-1.897 1.521-4.013 1.521-6.35 0-2.382-.507-4.499-1.521-6.35-1.015-1.897-2.404-3.374-4.168-4.433-1.764-1.102-3.77-1.654-6.02-1.654-2.204 0-4.21.552-6.019 1.654-1.764 1.059-3.175 2.536-4.233 4.432-1.015 1.852-1.522 3.97-1.522 6.35 0 2.338.507 4.454 1.522 6.35 1.058 1.853 2.47 3.33 4.233 4.433 1.808 1.058 3.815 1.587 6.02 1.587zM128.4 51.589c-3.043 0-5.777-.64-8.202-1.919-2.381-1.323-4.278-3.24-5.689-5.755-1.367-2.513-2.051-5.6-2.051-9.26V18.382c0-.97.309-1.764.927-2.381.661-.662 1.477-.992 2.447-.992s1.764.33 2.381.992c.662.617.993 1.411.993 2.381v16.273c0 3.748.992 6.504 2.976 8.268 2.029 1.72 4.543 2.58 7.541 2.58 1.896 0 3.572-.375 5.028-1.124 1.499-.75 2.69-1.764 3.572-3.043.881-1.28 1.322-2.712 1.322-4.3V18.382c0-1.014.309-1.83.927-2.447.661-.618 1.477-.926 2.447-.926 1.014 0 1.83.308 2.448.926.617.617.926 1.433.926 2.447v29.502c0 .97-.309 1.786-.926 2.448-.618.617-1.434.926-2.448.926-.97 0-1.786-.309-2.447-.926-.618-.662-.927-1.477-.927-2.448v-.727c-1.367 1.367-3.02 2.447-4.961 3.241-1.94.794-4.035 1.19-6.284 1.19zM221.776 51.523c-3.66 0-6.924-.772-9.79-2.316-2.822-1.587-5.049-3.748-6.681-6.482-1.588-2.778-2.381-5.954-2.381-9.526 0-3.616.749-6.79 2.249-9.525 1.543-2.778 3.66-4.939 6.35-6.482 2.69-1.588 5.777-2.382 9.261-2.382 3.439 0 6.394.772 8.864 2.315 2.469 1.5 4.343 3.594 5.622 6.285 1.323 2.645 1.985 5.71 1.985 9.194 0 .838-.287 1.544-.86 2.117-.574.529-1.301.794-2.183.794h-25.137c.486 3.042 1.875 5.534 4.168 7.474 2.337 1.897 5.181 2.845 8.533 2.845 1.367 0 2.756-.243 4.167-.728 1.456-.529 2.624-1.124 3.506-1.786.662-.485 1.367-.727 2.117-.727.794-.045 1.477.176 2.051.661.749.662 1.146 1.39 1.19 2.183.044.794-.308 1.477-1.058 2.05-1.5 1.191-3.374 2.161-5.623 2.911-2.205.75-4.321 1.124-6.35 1.124zm-.992-31.024c-3.264 0-5.887.904-7.872 2.712-1.984 1.808-3.241 4.145-3.77 7.012h22.027c-.397-2.823-1.477-5.138-3.241-6.946-1.764-1.852-4.146-2.778-7.144-2.778zM251.88 51.324c-.97 0-1.786-.309-2.448-.926-.617-.662-.926-1.477-.926-2.448V18.448c0-1.014.309-1.83.926-2.447.662-.618 1.478-.926 2.448-.926 1.014 0 1.83.309 2.447.926.618.617.926 1.433.926 2.447v.728c1.367-1.367 3.021-2.447 4.961-3.241 1.941-.794 4.035-1.191 6.284-1.191 3.043 0 5.755.662 8.137 1.985 2.425 1.278 4.321 3.175 5.688 5.688 1.412 2.514 2.117 5.6 2.117 9.261V47.95c0 .97-.331 1.786-.992 2.448-.617.617-1.411.926-2.381.926-.971 0-1.786-.309-2.448-.926-.617-.662-.926-1.477-.926-2.448V31.678c0-3.748-1.014-6.483-3.043-8.202-1.984-1.764-4.476-2.646-7.474-2.646-1.853 0-3.528.375-5.028 1.124-1.499.75-2.69 1.764-3.572 3.043-.882 1.235-1.323 2.668-1.323 4.3V47.95c0 .97-.308 1.786-.926 2.448-.617.617-1.433.926-2.447.926z"/>
    <path fill="#E17B68" d="M164.512 15.823c2.148 4.545 14.995 5.302 20.962.83 5.968-4.47-21.617 24.71-21.617 24.71s-1.492-30.086.655-25.54zM193.109 43.185c-4.525-2.19-5.16-15.044-.633-20.969 4.527-5.925-24.913 21.384-24.913 21.384s30.071 1.776 25.546-.415z" opacity=".5"/>
    <rect width="8.742" height="38.612" x="189.202" y="13.112" fill="#E8644A" rx="4.371" transform="rotate(45 189.202 13.112)"/>
    <rect width="8.742" height="38.612" x="158.849" y="50.434" fill="#E8644A" rx="4.371" transform="rotate(-90 158.849 50.434)"/>
    <rect width="8.742" height="38.612" x="167.414" y="50.356" fill="#E8644A" rx="4.371" transform="rotate(180 167.414 50.356)"/>
    <circle cx="153.027" cy="55.269" r="5.71" fill="#E8644A" transform="rotate(.527 153.027 55.269)"/>
</svg>
