<?xml version="1.0" encoding="UTF-8" standalone="no"?>
<svg
   xmlns:dc="http://purl.org/dc/elements/1.1/"
   xmlns:cc="http://creativecommons.org/ns#"
   xmlns:rdf="http://www.w3.org/1999/02/22-rdf-syntax-ns#"
   xmlns:svg="http://www.w3.org/2000/svg"
   xmlns="http://www.w3.org/2000/svg"
   xmlns:sodipodi="http://sodipodi.sourceforge.net/DTD/sodipodi-0.dtd"
   xmlns:inkscape="http://www.inkscape.org/namespaces/inkscape"
   width="75.190712"
   height="75.191154"
   viewBox="0 0 75.190711 75.191155"
   version="1.1"
   id="svg14"
   sodipodi:docname="icon2.svg"
   style="fill:none"
   inkscape:version="0.92.4 (5da689c313, 2019-01-14)">
  <metadata
     id="metadata20">
    <rdf:RDF>
      <cc:Work
         rdf:about="">
        <dc:format>image/svg+xml</dc:format>
        <dc:type
           rdf:resource="http://purl.org/dc/dcmitype/StillImage" />
        <dc:title />
      </cc:Work>
    </rdf:RDF>
  </metadata>
  <defs
     id="defs18" />
  <sodipodi:namedview
     pagecolor="#ffffff"
     bordercolor="#666666"
     borderopacity="1"
     objecttolerance="10"
     gridtolerance="10"
     guidetolerance="10"
     inkscape:pageopacity="0"
     inkscape:pageshadow="2"
     inkscape:window-width="1920"
     inkscape:window-height="1051"
     id="namedview16"
     showgrid="false"
     fit-margin-top="0"
     fit-margin-left="0"
     fit-margin-right="0"
     fit-margin-bottom="0"
     inkscape:zoom="7.1921824"
     inkscape:cx="-7.1818365"
     inkscape:cy="24.962134"
     inkscape:window-x="-9"
     inkscape:window-y="-9"
     inkscape:window-maximized="1"
     inkscape:current-layer="svg14"
     inkscape:snap-page="true"
     inkscape:snap-object-midpoints="true"
     inkscape:snap-center="true"
     inkscape:object-paths="true"
     inkscape:snap-intersection-paths="true"
     inkscape:snap-smooth-nodes="true"
     inkscape:snap-midpoints="true" />
  <circle
     style="opacity:1;vector-effect:none;fill:#999999;fill-opacity:1;stroke:none;stroke-width:63.49490356;stroke-linecap:round;stroke-linejoin:round;stroke-miterlimit:4;stroke-dasharray:none;stroke-dashoffset:0;stroke-opacity:1;paint-order:fill markers stroke"
     id="path831"
     cx="-53.167664"
     cy="0"
     r="37.595215"
     transform="rotate(-135)" />
  <path
     style="opacity:1;vector-effect:none;fill:#4d4d4d;fill-opacity:1;stroke:none;stroke-width:63.49490356;stroke-linecap:round;stroke-linejoin:round;stroke-miterlimit:4;stroke-dasharray:none;stroke-dashoffset:0;stroke-opacity:1;paint-order:fill markers stroke"
     d="m 11.010631,64.179424 a 37.595215,37.595215 0 0 0 53.168354,0 37.595215,37.595215 0 0 0 -10e-7,-53.168354 z"
     id="circle835"
     inkscape:connector-curvature="0" />
  <path
     d="m 29.718191,17.057324 c 2.148,4.545 14.995,5.302 20.962,0.83 5.968,-4.47 -21.617,24.710001 -21.617,24.710001 0,0 -1.492,-30.086001 0.655,-25.540001 z m 28.597,27.362001 c -4.525,-2.19 -5.16,-15.044 -0.633,-20.969 4.527,-5.925001 -24.913,21.384 -24.913,21.384 0,0 30.071,1.776 25.546,-0.415 z"
     id="path4"
     inkscape:connector-curvature="0"
     style="opacity:1;fill:#edbcb5;fill-opacity:1;stroke:none;stroke-opacity:1" />
  <path
     style="fill:#e8644a;stroke:#ffffff;stroke-opacity:1"
     d="M 28.25 12.978516 C 25.828466 12.978516 23.878906 14.928075 23.878906 17.349609 L 23.878906 47.21875 C 23.878906 49.062335 25.011183 50.627094 26.619141 51.271484 C 27.170389 51.521454 27.77904 51.667969 28.425781 51.667969 L 58.296875 51.667969 C 60.718409 51.667969 62.667969 49.718409 62.667969 47.296875 C 62.667969 44.875341 60.718409 42.925781 58.296875 42.925781 L 38.191406 42.925781 L 57.498047 23.619141 C 59.21033 21.906858 59.21033 19.149783 57.498047 17.4375 C 55.785764 15.725217 53.030642 15.725217 51.318359 17.4375 L 32.621094 36.132812 L 32.621094 17.349609 C 32.621094 14.928075 30.671534 12.978516 28.25 12.978516 z M 18.285156 50.792969 A 5.71 5.71 0 0 0 12.523438 56.451172 A 5.71 5.71 0 0 0 18.181641 62.212891 A 5.71 5.71 0 0 0 23.943359 56.556641 A 5.71 5.71 0 0 0 18.285156 50.792969 z "
     id="rect6" />
</svg>
