<?xml version="1.0" encoding="UTF-8" standalone="no"?>
<svg
   xmlns:dc="http://purl.org/dc/elements/1.1/"
   xmlns:cc="http://creativecommons.org/ns#"
   xmlns:rdf="http://www.w3.org/1999/02/22-rdf-syntax-ns#"
   xmlns:svg="http://www.w3.org/2000/svg"
   xmlns="http://www.w3.org/2000/svg"
   xmlns:sodipodi="http://sodipodi.sourceforge.net/DTD/sodipodi-0.dtd"
   xmlns:inkscape="http://www.inkscape.org/namespaces/inkscape"
   width="22"
   height="22"
   viewBox="0 0 22 22"
   version="1.1"
   id="svg14"
   sodipodi:docname="share.svg.2020_03_16_15_28_00.0.svg"
   inkscape:version="0.92.4 (5da689c313, 2019-01-14)">
  <metadata
     id="metadata20">
    <rdf:RDF>
      <cc:Work
         rdf:about="">
        <dc:format>image/svg+xml</dc:format>
        <dc:type
           rdf:resource="http://purl.org/dc/dcmitype/StillImage" />
        <dc:title>menu</dc:title>
      </cc:Work>
    </rdf:RDF>
  </metadata>
  <defs
     id="defs18">
    <pattern
       y="0"
       x="0"
       height="6"
       width="6"
       patternUnits="userSpaceOnUse"
       id="EMFhbasepattern" />
  </defs>
  <sodipodi:namedview
     pagecolor="#ffffff"
     bordercolor="#666666"
     borderopacity="1"
     objecttolerance="10"
     gridtolerance="10"
     guidetolerance="10"
     inkscape:pageopacity="0"
     inkscape:pageshadow="2"
     inkscape:window-width="1920"
     inkscape:window-height="1051"
     id="namedview16"
     showgrid="true"
     inkscape:snap-center="true"
     inkscape:snap-object-midpoints="true"
     inkscape:snap-global="true"
     inkscape:snap-bbox="true"
     inkscape:bbox-paths="true"
     inkscape:bbox-nodes="true"
     inkscape:snap-bbox-edge-midpoints="true"
     inkscape:snap-bbox-midpoints="true"
     inkscape:zoom="19.666667"
     inkscape:cx="9.9593822"
     inkscape:cy="11.224798"
     inkscape:window-x="1791"
     inkscape:window-y="511"
     inkscape:window-maximized="1"
     inkscape:current-layer="svg14"
     fit-margin-top="0"
     fit-margin-left="0"
     fit-margin-right="0"
     fit-margin-bottom="0"
     inkscape:snap-smooth-nodes="true"
     inkscape:object-paths="true"
     inkscape:snap-intersection-paths="true"
     inkscape:snap-grids="false"
     inkscape:snap-page="true">
    <inkscape:grid
       type="xygrid"
       id="grid845"
       originx="2"
       originy="5" />
  </sodipodi:namedview>
  <!-- Generator: Sketch 52.5 (67469) - http://www.bohemiancoding.com/sketch -->
  <title
     id="title2">menu</title>
  <desc
     id="desc4">Created with Sketch.</desc>
  <path
     style="opacity:1;vector-effect:none;fill:#0f0f0f;fill-opacity:1;stroke:none;stroke-width:43.06666565;stroke-linecap:round;stroke-linejoin:round;stroke-miterlimit:4;stroke-dasharray:none;stroke-dashoffset:0;stroke-opacity:1;paint-order:fill markers stroke"
     d="M 18.542969 0 A 3.4576271 3.4576271 0 0 0 15.083984 3.4570312 A 3.4576271 3.4576271 0 0 0 15.103516 3.7792969 L 5.7792969 8.4414062 A 3.4576271 3.4576271 0 0 0 5.7480469 8.4140625 A 3.4576271 3.4576271 0 0 0 5.6523438 8.3300781 A 3.4576271 3.4576271 0 0 0 5.4882812 8.2070312 A 3.4576271 3.4576271 0 0 0 5.375 8.125 A 3.4576271 3.4576271 0 0 0 5.2148438 8.0273438 A 3.4576271 3.4576271 0 0 0 5.0644531 7.9394531 A 3.4576271 3.4576271 0 0 0 4.9355469 7.8769531 A 3.4576271 3.4576271 0 0 0 4.75 7.7949219 A 3.4576271 3.4576271 0 0 0 4.578125 7.7324219 A 3.4576271 3.4576271 0 0 0 4.4433594 7.6875 A 3.4576271 3.4576271 0 0 0 4.2363281 7.6347656 A 3.4576271 3.4576271 0 0 0 4.1074219 7.6054688 A 3.4576271 3.4576271 0 0 0 3.8789062 7.5722656 A 3.4576271 3.4576271 0 0 0 3.7714844 7.5585938 A 3.4576271 3.4576271 0 0 0 3.4570312 7.5429688 A 3.4576271 3.4576271 0 0 0 3.1445312 7.5585938 A 3.4576271 3.4576271 0 0 0 3.0410156 7.5722656 A 3.4576271 3.4576271 0 0 0 2.8046875 7.6054688 A 3.4576271 3.4576271 0 0 0 2.6816406 7.6347656 A 3.4576271 3.4576271 0 0 0 2.4765625 7.6875 A 3.4576271 3.4576271 0 0 0 2.3203125 7.7382812 A 3.4576271 3.4576271 0 0 0 2.1660156 7.7949219 A 3.4576271 3.4576271 0 0 0 1.9960938 7.8691406 A 3.4576271 3.4576271 0 0 0 1.8417969 7.9453125 A 3.4576271 3.4576271 0 0 0 1.7109375 8.0195312 A 3.4576271 3.4576271 0 0 0 1.5410156 8.125 A 3.4576271 3.4576271 0 0 0 1.4277344 8.2070312 A 3.4576271 3.4576271 0 0 0 1.265625 8.328125 A 3.4576271 3.4576271 0 0 0 1.1464844 8.4335938 A 3.4576271 3.4576271 0 0 0 1.0136719 8.5566406 A 3.4576271 3.4576271 0 0 0 0.90234375 8.6777344 A 3.4576271 3.4576271 0 0 0 0.7734375 8.8261719 A 3.4576271 3.4576271 0 0 0 0.70898438 8.9082031 A 3.4576271 3.4576271 0 0 0 0.56445312 9.1113281 A 3.4576271 3.4576271 0 0 0 0.50976562 9.2011719 A 3.4576271 3.4576271 0 0 0 0.3984375 9.3925781 A 3.4576271 3.4576271 0 0 0 0.32421875 9.5507812 A 3.4576271 3.4576271 0 0 0 0.25976562 9.6933594 A 3.4576271 3.4576271 0 0 0 0.1953125 9.8691406 A 3.4576271 3.4576271 0 0 0 0.13867188 10.037109 A 3.4576271 3.4576271 0 0 0 0.10742188 10.160156 A 3.4576271 3.4576271 0 0 0 0.05859375 10.375 A 3.4576271 3.4576271 0 0 0 0.03515625 10.529297 A 3.4576271 3.4576271 0 0 0 0.015625 10.693359 A 3.4576271 3.4576271 0 0 0 0 11 A 3.4576271 3.4576271 0 0 0 0.015625 11.306641 A 3.4576271 3.4576271 0 0 0 0.03515625 11.470703 A 3.4576271 3.4576271 0 0 0 0.05859375 11.625 A 3.4576271 3.4576271 0 0 0 0.10742188 11.839844 A 3.4576271 3.4576271 0 0 0 0.13867188 11.962891 A 3.4576271 3.4576271 0 0 0 0.1953125 12.130859 A 3.4576271 3.4576271 0 0 0 0.25976562 12.306641 A 3.4576271 3.4576271 0 0 0 0.32421875 12.449219 A 3.4576271 3.4576271 0 0 0 0.3984375 12.607422 A 3.4576271 3.4576271 0 0 0 0.50976562 12.798828 A 3.4576271 3.4576271 0 0 0 0.56445312 12.888672 A 3.4576271 3.4576271 0 0 0 0.70898438 13.091797 A 3.4576271 3.4576271 0 0 0 0.7734375 13.173828 A 3.4576271 3.4576271 0 0 0 0.90234375 13.322266 A 3.4576271 3.4576271 0 0 0 1.0136719 13.443359 A 3.4576271 3.4576271 0 0 0 1.1464844 13.566406 A 3.4576271 3.4576271 0 0 0 1.265625 13.671875 A 3.4576271 3.4576271 0 0 0 1.4277344 13.792969 A 3.4576271 3.4576271 0 0 0 1.5410156 13.875 A 3.4576271 3.4576271 0 0 0 1.7109375 13.980469 A 3.4576271 3.4576271 0 0 0 1.8417969 14.054688 A 3.4576271 3.4576271 0 0 0 1.9960938 14.130859 A 3.4576271 3.4576271 0 0 0 2.1660156 14.205078 A 3.4576271 3.4576271 0 0 0 2.3203125 14.261719 A 3.4576271 3.4576271 0 0 0 2.4765625 14.3125 A 3.4576271 3.4576271 0 0 0 2.6816406 14.365234 A 3.4576271 3.4576271 0 0 0 2.8046875 14.394531 A 3.4576271 3.4576271 0 0 0 3.0410156 14.427734 A 3.4576271 3.4576271 0 0 0 3.1445312 14.441406 A 3.4576271 3.4576271 0 0 0 3.4570312 14.457031 A 3.4576271 3.4576271 0 0 0 3.7714844 14.441406 A 3.4576271 3.4576271 0 0 0 3.8789062 14.427734 A 3.4576271 3.4576271 0 0 0 4.1074219 14.394531 A 3.4576271 3.4576271 0 0 0 4.2363281 14.365234 A 3.4576271 3.4576271 0 0 0 4.4433594 14.3125 A 3.4576271 3.4576271 0 0 0 4.578125 14.267578 A 3.4576271 3.4576271 0 0 0 4.75 14.205078 A 3.4576271 3.4576271 0 0 0 4.9355469 14.123047 A 3.4576271 3.4576271 0 0 0 5.0644531 14.060547 A 3.4576271 3.4576271 0 0 0 5.2148438 13.972656 A 3.4576271 3.4576271 0 0 0 5.375 13.875 A 3.4576271 3.4576271 0 0 0 5.4882812 13.792969 A 3.4576271 3.4576271 0 0 0 5.6503906 13.671875 A 3.4576271 3.4576271 0 0 0 5.7597656 13.576172 A 3.4576271 3.4576271 0 0 0 5.7792969 13.556641 L 15.103516 18.220703 A 3.4576271 3.4576271 0 0 0 15.083984 18.542969 A 3.4576271 3.4576271 0 0 0 18.542969 22 A 3.4576271 3.4576271 0 0 0 22 18.542969 A 3.4576271 3.4576271 0 0 0 18.542969 15.083984 A 3.4576271 3.4576271 0 0 0 16.222656 15.984375 L 6.9003906 11.324219 A 3.4576271 3.4576271 0 0 0 6.9023438 11.279297 A 3.4576271 3.4576271 0 0 0 6.9160156 11 A 3.4576271 3.4576271 0 0 0 6.9023438 10.728516 A 3.4576271 3.4576271 0 0 0 6.9003906 10.675781 L 16.222656 6.015625 A 3.4576271 3.4576271 0 0 0 18.542969 6.9160156 A 3.4576271 3.4576271 0 0 0 22 3.4570312 A 3.4576271 3.4576271 0 0 0 18.542969 0 z "
     id="path814" />
</svg>
